# xmcd
#
# Track frame offsets: 
#        150
#        15707
#        32152
#        44670
#        55672
#        78217
#        91625
#        107242
#        125280
#        144310
#        162262
#        175125
#        184442
#
# Disc length: 2705 seconds
#
# Revision: 3
# Processed by: cddbd v1.5.2PL0 Copyright (c) Steve Scherf et al.
# Submitted via: ExactAudioCopy v1.0b3
#
DISCID=a30a8f0d
DTITLE=June Carter Cash - Press On
DYEAR=1999
DGENRE=Country
TTITLE0=Diamonds in the Rough
TTITLE1=Ring Of Fire
TTITLE2=The Far Side Banks Of Jordan
TTITLE3=Losin' You
TTITLE4=Gatsby's Restaurant
TTITLE5=Wings Of Angels
TTITLE6=The L&N Don't Stop Here Anymore
TTITLE7=Once Before I Die
TTITLE8=I Used To Be Somebody
TTITLE9=Tall Lover Man
TTITLE10=Tiffany Anastasis Lowe
TTITLE11=Meeting in the Air
TTITLE12=Will The Circle Be Unbroken
EXTD=YEAR: 1999
EXTT0=
EXTT1=
EXTT2=
EXTT3=
EXTT4=
EXTT5=
EXTT6=
EXTT7=
EXTT8=
EXTT9=
EXTT10=
EXTT11=
EXTT12=
PLAYORDER=
